<svg width="418" height="305" viewBox="0 0 418 305" fill="none" xmlns="http://www.w3.org/2000/svg">
<g id="fortune_cookie">
<g id="fortune">
<g id="g4229">
<path id="path4231" d="M297.73 138.473C297.73 138.473 338.072 128.589 390.889 85.5529C390.889 85.5529 415.666 115.548 417.622 159.236C417.622 159.236 343.353 209.688 286.265 214.13C286.265 214.13 308.902 172.484 297.73 138.473" fill="#F7F7F7"/>
</g>
</g>
<g id="cookie">
<g id="g4201">
<path id="path4203" d="M155.121 0.728737C70.8781 1.32474 1.91414 69.8034 0.752806 154.039C-0.199194 223.085 43.8568 281.967 105.451 303.246C109.53 304.655 114.059 303.478 116.889 300.218C127.198 288.341 139.695 272.525 145.953 259.23C150.381 249.818 152.926 222.217 154.378 191.494C154.378 191.494 153.701 102.343 156.189 117.158L156.173 191.494C157.625 222.217 160.17 249.818 164.599 259.23C170.906 272.631 183.558 288.602 193.915 300.511C196.842 303.875 201.513 305.118 205.739 303.699C267.359 283.027 311.755 224.815 311.755 156.234C311.755 69.9741 241.522 0.116737 155.121 0.728737Z" fill="#EAB363"/>
</g>
<g id="g4205">
<path id="path4207" d="M46.5854 256.882C46.5854 256.882 73.9228 294.213 105.923 298.451C120.589 298.451 117.923 279.867 105.923 279.867C95.2561 279.867 53.4321 264.87 46.5854 256.882Z" fill="#8C5E28"/>
</g>
<g id="g4209">
<path id="path4211" d="M262.594 256.882C262.594 256.882 235.257 294.213 203.257 298.451C189.923 298.451 191.257 279.867 203.257 279.867C213.923 279.867 255.747 264.87 262.594 256.882" fill="#8C5E28"/>
</g>
<g id="g4213">
<path id="path4215" d="M34.8625 71.5333C34.8625 71.5333 83.9692 7.95728 156.247 7.95728C228.525 7.95728 278.408 71.5333 278.408 71.5333C278.408 71.5333 168.861 -45.8374 34.8625 71.5333Z" fill="#8C5E28"/>
</g>
<g id="g4217">
<path id="path4219" d="M156.146 71.5333C156.146 71.5333 114.547 67.6213 125.333 127.284C132.609 167.539 144.091 200.667 150.794 217.961C151.827 209.693 152.673 200.737 153.362 191.495C153.362 191.495 152.294 102.343 156.214 117.159L156.189 191.493C157.023 202.709 158.09 213.503 159.443 223.153C165.582 207.977 178.871 172.032 186.959 127.284C197.745 67.6213 156.146 71.5333 156.146 71.5333Z" fill="#E2942D"/>
</g>
<g id="g4221">
<path id="path4223" d="M106.263 101.854C106.263 101.854 117.022 48.1994 156.146 48.1994C195.27 48.1994 202.117 101.854 202.117 101.854C202.117 101.854 248.087 95.4154 245.153 75.0274C242.218 54.6381 186.467 25.6647 156.146 25.6647C125.825 25.6647 68.118 44.9807 67.1394 68.5887C66.162 92.1967 92.57 97.5621 106.263 101.854Z" fill="#F4CD9A"/>
</g>
<g id="g4225">
<path id="path4227" d="M31.6021 235.527C31.6021 235.527 3.56347 195.099 5.51947 159.235C7.47547 123.372 18.5115 107.071 18.5115 107.071C18.5115 107.071 -2.95653 152.063 31.6021 235.527" fill="#8C5E28"/>
</g>
<g id="g4249">
<path id="path4251" d="M278.31 234.527C278.31 234.527 306.349 194.099 304.393 158.235C302.437 122.372 291.401 106.071 291.401 106.071C291.401 106.071 312.869 151.063 278.31 234.527Z" fill="#8C5E28"/>
</g>
</g>
</g>
</svg>
